<mxfile host="65bd71144e">
    <diagram id="GAuyTGuWvybDKq5giiiN" name="Page-1">
        <mxGraphModel dx="1109" dy="633" grid="1" gridSize="10" guides="1" tooltips="1" connect="1" arrows="1" fold="1" page="1" pageScale="1" pageWidth="850" pageHeight="1100" math="0" shadow="0">
            <root>
                <mxCell id="0"/>
                <mxCell id="1" parent="0"/>
                <mxCell id="88" value="" style="rounded=0;whiteSpace=wrap;html=1;shadow=0;glass=0;labelBackgroundColor=#FFFFFF;sketch=0;strokeColor=none;strokeWidth=2;fontSize=15;fontColor=#666666;fillColor=#FFFFFF;" parent="1" vertex="1">
                    <mxGeometry x="100" y="20" width="600" height="480" as="geometry"/>
                </mxCell>
                <mxCell id="54" style="edgeStyle=none;html=1;entryX=0;entryY=0.25;entryDx=0;entryDy=0;fontSize=20;fontColor=#666666;strokeColor=#333333;" parent="1" source="35" target="41" edge="1">
                    <mxGeometry relative="1" as="geometry">
                        <Array as="points">
                            <mxPoint x="240" y="180"/>
                        </Array>
                    </mxGeometry>
                </mxCell>
                <mxCell id="89" value="PUSH" style="edgeLabel;align=center;verticalAlign=middle;resizable=0;points=[];fontSize=15;fontColor=#4D4D4D;labelBackgroundColor=#FFFFFF;fontStyle=1" parent="54" vertex="1" connectable="0">
                    <mxGeometry x="-0.6079" relative="1" as="geometry">
                        <mxPoint y="11" as="offset"/>
                    </mxGeometry>
                </mxCell>
                <mxCell id="55" style="edgeStyle=none;html=1;entryX=1;entryY=0.25;entryDx=0;entryDy=0;fontSize=20;fontColor=#666666;strokeColor=#333333;" parent="1" source="34" target="41" edge="1">
                    <mxGeometry relative="1" as="geometry">
                        <Array as="points">
                            <mxPoint x="560" y="180"/>
                        </Array>
                    </mxGeometry>
                </mxCell>
                <mxCell id="52" style="edgeStyle=none;html=1;entryX=0.5;entryY=0;entryDx=0;entryDy=0;fontSize=20;fontColor=#666666;exitX=0;exitY=0.75;exitDx=0;exitDy=0;strokeColor=#333333;" parent="1" source="41" edge="1">
                    <mxGeometry relative="1" as="geometry">
                        <Array as="points">
                            <mxPoint x="240" y="220"/>
                        </Array>
                        <mxPoint x="240" y="280" as="targetPoint"/>
                    </mxGeometry>
                </mxCell>
                <mxCell id="91" value="&lt;b&gt;POST&lt;/b&gt;" style="edgeLabel;html=1;align=center;verticalAlign=middle;resizable=0;points=[];fontSize=15;fontColor=#4D4D4D;labelBackgroundColor=#FFFFFF;" vertex="1" connectable="0" parent="52">
                    <mxGeometry x="0.1" relative="1" as="geometry">
                        <mxPoint y="15" as="offset"/>
                    </mxGeometry>
                </mxCell>
                <mxCell id="56" style="edgeStyle=none;html=1;entryX=1;entryY=0.75;entryDx=0;entryDy=0;fontSize=20;fontColor=#666666;strokeColor=#333333;" parent="1" source="36" target="41" edge="1">
                    <mxGeometry relative="1" as="geometry">
                        <Array as="points">
                            <mxPoint x="560" y="220"/>
                        </Array>
                    </mxGeometry>
                </mxCell>
                <mxCell id="92" value="GET" style="edgeLabel;html=1;align=center;verticalAlign=middle;resizable=0;points=[];fontSize=15;fontColor=#4D4D4D;fontStyle=1;labelBackgroundColor=#FFFFFF;" vertex="1" connectable="0" parent="56">
                    <mxGeometry x="-0.1633" y="-1" relative="1" as="geometry">
                        <mxPoint x="-1" y="12" as="offset"/>
                    </mxGeometry>
                </mxCell>
                <mxCell id="62" value="" style="edgeStyle=none;html=1;fontSize=20;fontColor=#666666;strokeColor=#333333;" parent="1" source="37" target="38" edge="1">
                    <mxGeometry relative="1" as="geometry">
                        <Array as="points">
                            <mxPoint x="240" y="440"/>
                        </Array>
                    </mxGeometry>
                </mxCell>
                <mxCell id="90" value="TRIGGER" style="edgeLabel;html=1;align=center;verticalAlign=middle;resizable=0;points=[];fontSize=15;labelBackgroundColor=#FFFFFF;fontColor=#4D4D4D;fontStyle=1" vertex="1" connectable="0" parent="62">
                    <mxGeometry x="0.0929" y="3" relative="1" as="geometry">
                        <mxPoint as="offset"/>
                    </mxGeometry>
                </mxCell>
                <mxCell id="63" value="" style="edgeStyle=none;html=1;fontSize=20;fontColor=#666666;strokeColor=#333333;" parent="1" source="38" target="36" edge="1">
                    <mxGeometry relative="1" as="geometry"/>
                </mxCell>
                <mxCell id="79" value="" style="group" parent="1" vertex="1" connectable="0">
                    <mxGeometry x="120" y="40" width="240" height="80" as="geometry"/>
                </mxCell>
                <mxCell id="35" value="Desarrollador" style="rounded=0;whiteSpace=wrap;html=1;fontSize=20;fontColor=#666666;strokeColor=#B3B3B3;fillColor=#FFFFFF;spacingLeft=84;align=left;fontStyle=1;shadow=1;strokeWidth=2;" parent="79" vertex="1">
                    <mxGeometry width="240" height="80" as="geometry"/>
                </mxCell>
                <mxCell id="3" value="" style="points=[[0.35,0,0],[0.98,0.51,0],[1,0.71,0],[0.67,1,0],[0,0.795,0],[0,0.65,0]];verticalLabelPosition=bottom;sketch=0;html=1;verticalAlign=top;aspect=fixed;align=center;pointerEvents=1;shape=mxgraph.cisco19.user;fillColor=#005073;strokeColor=none;fontColor=#666666;fontStyle=1;fontSize=20;" parent="79" vertex="1">
                    <mxGeometry x="10" y="10" width="60" height="60" as="geometry"/>
                </mxCell>
                <mxCell id="80" value="" style="group" parent="1" vertex="1" connectable="0">
                    <mxGeometry x="440" y="40" width="260" height="580" as="geometry"/>
                </mxCell>
                <mxCell id="34" value="Usuario" style="rounded=0;whiteSpace=wrap;html=1;fontSize=20;fontColor=#666666;strokeColor=#B3B3B3;fillColor=#FFFFFF;spacingLeft=84;align=left;fontStyle=1;shadow=1;strokeWidth=2;" parent="80" vertex="1">
                    <mxGeometry width="240" height="80" as="geometry"/>
                </mxCell>
                <mxCell id="2" value="" style="verticalLabelPosition=bottom;html=1;verticalAlign=top;align=center;strokeColor=none;fillColor=#00BEF2;shape=mxgraph.azure.user;fontColor=#666666;fontStyle=1;fontSize=20;" parent="80" vertex="1">
                    <mxGeometry x="10" y="10" width="60" height="60" as="geometry"/>
                </mxCell>
                <mxCell id="81" value="" style="group" parent="1" vertex="1" connectable="0">
                    <mxGeometry x="280" y="160" width="240" height="80" as="geometry"/>
                </mxCell>
                <mxCell id="41" value="&lt;span style=&quot;text-align: center;&quot;&gt;App runner&lt;/span&gt;" style="rounded=0;whiteSpace=wrap;html=1;fontSize=20;fontColor=#666666;strokeColor=#B3B3B3;fillColor=#FFFFFF;spacingLeft=84;align=left;fontStyle=1;shadow=1;strokeWidth=2;" parent="81" vertex="1">
                    <mxGeometry width="240" height="80" as="geometry"/>
                </mxCell>
                <mxCell id="9" value="" style="sketch=0;points=[[0,0,0],[0.25,0,0],[0.5,0,0],[0.75,0,0],[1,0,0],[0,1,0],[0.25,1,0],[0.5,1,0],[0.75,1,0],[1,1,0],[0,0.25,0],[0,0.5,0],[0,0.75,0],[1,0.25,0],[1,0.5,0],[1,0.75,0]];outlineConnect=0;fontColor=#666666;gradientColor=#F78E04;gradientDirection=north;fillColor=#D05C17;strokeColor=#ffffff;dashed=0;verticalLabelPosition=bottom;verticalAlign=top;align=center;html=1;fontSize=20;fontStyle=1;aspect=fixed;shape=mxgraph.aws4.resourceIcon;resIcon=mxgraph.aws4.app_runner;" parent="81" vertex="1">
                    <mxGeometry x="10" y="10" width="60" height="60" as="geometry"/>
                </mxCell>
                <mxCell id="85" value="" style="group" parent="1" vertex="1" connectable="0">
                    <mxGeometry x="440" y="280" width="240" height="80" as="geometry"/>
                </mxCell>
                <mxCell id="36" value="&lt;span style=&quot;text-align: center;&quot;&gt;DynamoDB&lt;/span&gt;" style="rounded=0;whiteSpace=wrap;html=1;fontSize=20;fontColor=#666666;strokeColor=#B3B3B3;fillColor=#FFFFFF;spacingLeft=84;align=left;fontStyle=1;shadow=1;strokeWidth=2;" parent="85" vertex="1">
                    <mxGeometry width="240" height="80" as="geometry"/>
                </mxCell>
                <mxCell id="26" value="" style="sketch=0;points=[[0,0,0],[0.25,0,0],[0.5,0,0],[0.75,0,0],[1,0,0],[0,1,0],[0.25,1,0],[0.5,1,0],[0.75,1,0],[1,1,0],[0,0.25,0],[0,0.5,0],[0,0.75,0],[1,0.25,0],[1,0.5,0],[1,0.75,0]];outlineConnect=0;fontColor=#666666;gradientColor=#4D72F3;gradientDirection=north;fillColor=#3334B9;strokeColor=#ffffff;dashed=0;verticalLabelPosition=bottom;verticalAlign=top;align=center;html=1;fontSize=20;fontStyle=1;aspect=fixed;shape=mxgraph.aws4.resourceIcon;resIcon=mxgraph.aws4.dynamodb;" parent="85" vertex="1">
                    <mxGeometry x="10" y="10" width="60" height="60" as="geometry"/>
                </mxCell>
                <mxCell id="86" value="" style="group" parent="1" vertex="1" connectable="0">
                    <mxGeometry x="440" y="400" width="240" height="80" as="geometry"/>
                </mxCell>
                <mxCell id="38" value="&lt;span style=&quot;text-align: center;&quot;&gt;Lambda&lt;/span&gt;" style="rounded=0;whiteSpace=wrap;html=1;fontSize=20;fontColor=#666666;strokeColor=#B3B3B3;fillColor=#FFFFFF;spacingLeft=84;align=left;fontStyle=1;shadow=1;strokeWidth=2;" parent="86" vertex="1">
                    <mxGeometry width="240" height="80" as="geometry"/>
                </mxCell>
                <mxCell id="10" value="" style="sketch=0;points=[[0,0,0],[0.25,0,0],[0.5,0,0],[0.75,0,0],[1,0,0],[0,1,0],[0.25,1,0],[0.5,1,0],[0.75,1,0],[1,1,0],[0,0.25,0],[0,0.5,0],[0,0.75,0],[1,0.25,0],[1,0.5,0],[1,0.75,0]];outlineConnect=0;fontColor=#666666;gradientColor=#F78E04;gradientDirection=north;fillColor=#D05C17;strokeColor=#ffffff;dashed=0;verticalLabelPosition=bottom;verticalAlign=top;align=center;html=1;fontSize=20;fontStyle=1;aspect=fixed;shape=mxgraph.aws4.resourceIcon;resIcon=mxgraph.aws4.lambda;" parent="86" vertex="1">
                    <mxGeometry x="10" y="10" width="60" height="60" as="geometry"/>
                </mxCell>
                <mxCell id="87" value="" style="group" parent="1" vertex="1" connectable="0">
                    <mxGeometry x="120" y="280" width="240" height="80" as="geometry"/>
                </mxCell>
                <mxCell id="37" value="&lt;span style=&quot;text-align: center;&quot;&gt;Bucket S3&lt;/span&gt;" style="rounded=0;whiteSpace=wrap;html=1;fontSize=20;fontColor=#666666;strokeColor=#B3B3B3;fillColor=#FFFFFF;spacingLeft=84;align=left;fontStyle=1;shadow=1;strokeWidth=2;" parent="87" vertex="1">
                    <mxGeometry width="240" height="80" as="geometry"/>
                </mxCell>
                <mxCell id="6" value="" style="sketch=0;points=[[0,0,0],[0.25,0,0],[0.5,0,0],[0.75,0,0],[1,0,0],[0,1,0],[0.25,1,0],[0.5,1,0],[0.75,1,0],[1,1,0],[0,0.25,0],[0,0.5,0],[0,0.75,0],[1,0.25,0],[1,0.5,0],[1,0.75,0]];outlineConnect=0;fontColor=#666666;gradientColor=#60A337;gradientDirection=north;fillColor=#277116;strokeColor=#ffffff;dashed=0;verticalLabelPosition=bottom;verticalAlign=top;align=center;html=1;fontSize=20;fontStyle=1;aspect=fixed;shape=mxgraph.aws4.resourceIcon;resIcon=mxgraph.aws4.s3;" parent="87" vertex="1">
                    <mxGeometry x="10" y="10" width="60" height="60" as="geometry"/>
                </mxCell>
            </root>
        </mxGraphModel>
    </diagram>
</mxfile>